<?xml version="1.0" encoding="UTF-8" standalone="no"?>
<!-- Created with Inkscape (http://www.inkscape.org/) -->

<svg
   xmlns:dc="http://purl.org/dc/elements/1.1/"
   xmlns:cc="http://creativecommons.org/ns#"
   xmlns:rdf="http://www.w3.org/1999/02/22-rdf-syntax-ns#"
   xmlns:svg="http://www.w3.org/2000/svg"
   xmlns="http://www.w3.org/2000/svg"
   xmlns:sodipodi="http://sodipodi.sourceforge.net/DTD/sodipodi-0.dtd"
   xmlns:inkscape="http://www.inkscape.org/namespaces/inkscape"
   id="svg3336"
   version="1.1"
   inkscape:version="0.91 r13725"
   xml:space="preserve"
   width="570"
   height="346.25"
   viewBox="0 0 570 346.25"
   sodipodi:docname="nathans_hot_dog_contest.svg"><metadata
     id="metadata3342"><rdf:RDF><cc:Work
         rdf:about=""><dc:format>image/svg+xml</dc:format><dc:type
           rdf:resource="http://purl.org/dc/dcmitype/StillImage" /><dc:title></dc:title></cc:Work></rdf:RDF></metadata><defs
     id="defs3340" /><sodipodi:namedview
     pagecolor="#ffffff"
     bordercolor="#666666"
     borderopacity="1"
     objecttolerance="10"
     gridtolerance="10"
     guidetolerance="10"
     inkscape:pageopacity="0"
     inkscape:pageshadow="2"
     inkscape:window-width="1366"
     inkscape:window-height="716"
     id="namedview3338"
     showgrid="false"
     inkscape:zoom="0.735"
     inkscape:cx="231.34408"
     inkscape:cy="30.850784"
     inkscape:window-x="-8"
     inkscape:window-y="-8"
     inkscape:window-maximized="1"
     inkscape:current-layer="g3344" /><g
     id="g3344"
     inkscape:groupmode="layer"
     inkscape:label="nathans_hot_dog_contest"
     transform="matrix(1.25,0,0,-1.25,0,346.25)"><g
       id="g3350" /><g
       id="g3352"><path
         d="m 72.65,74.88 8.51,0 0,19.21 -8.51,0 0,-19.21 z"
         style="fill:#cccccc;fill-opacity:1;fill-rule:nonzero;stroke:none"
         id="path3354"
         inkscape:connector-curvature="0" /><path
         d="m 83.71,74.88 8.51,0 0,23.23 -8.51,0 0,-23.23 z"
         style="fill:#cccccc;fill-opacity:1;fill-rule:nonzero;stroke:none"
         id="path3356"
         inkscape:connector-curvature="0" /><path
         d="m 94.77,74.88 8.51,0 0,23.23 -8.51,0 0,-23.23 z"
         style="fill:#cccccc;fill-opacity:1;fill-rule:nonzero;stroke:none"
         id="path3358"
         inkscape:connector-curvature="0" /><path
         d="m 105.82,74.88 8.51,0 0,41.17 -8.51,0 0,-41.17 z"
         style="fill:#cccccc;fill-opacity:1;fill-rule:nonzero;stroke:none"
         id="path3360"
         inkscape:connector-curvature="0" /><path
         d="m 116.88,74.88 8.51,0 0,20.06 -8.51,0 0,-20.06 z"
         style="fill:#cccccc;fill-opacity:1;fill-rule:nonzero;stroke:none"
         id="path3362"
         inkscape:connector-curvature="0" /><path
         d="m 127.94,74.88 8.51,0 0,24.81 -8.51,0 0,-24.81 z"
         style="fill:#cccccc;fill-opacity:1;fill-rule:nonzero;stroke:none"
         id="path3364"
         inkscape:connector-curvature="0" /><path
         d="m 139,74.88 8.51,0 0,32.73 -8.51,0 0,-32.73 z"
         style="fill:#cccccc;fill-opacity:1;fill-rule:nonzero;stroke:none"
         id="path3366"
         inkscape:connector-curvature="0" /><path
         d="m 150.06,74.88 8.51,0 0,25.34 -8.51,0 0,-25.34 z"
         style="fill:#cccccc;fill-opacity:1;fill-rule:nonzero;stroke:none"
         id="path3368"
         inkscape:connector-curvature="0" /><path
         d="m 161.11,74.88 8.51,0 0,29.56 -8.51,0 0,-29.56 z"
         style="fill:#cccccc;fill-opacity:1;fill-rule:nonzero;stroke:none"
         id="path3370"
         inkscape:connector-curvature="0" /><path
         d="m 172.17,74.88 8.51,0 0,27.45 -8.51,0 0,-27.45 z"
         style="fill:#cccccc;fill-opacity:1;fill-rule:nonzero;stroke:none"
         id="path3372"
         inkscape:connector-curvature="0" /><path
         d="m 183.23,74.88 8.51,0 0,33.78 -8.51,0 0,-33.78 z"
         style="fill:#cccccc;fill-opacity:1;fill-rule:nonzero;stroke:none"
         id="path3374"
         inkscape:connector-curvature="0" /><path
         d="m 194.29,74.88 8.51,0 0,45.4 -8.51,0 0,-45.4 z"
         style="fill:#821122;fill-opacity:1;fill-rule:nonzero;stroke:none"
         id="path3376"
         inkscape:connector-curvature="0" /><path
         d="m 205.35,74.88 8.51,0 0,40.12 -8.51,0 0,-40.12 z"
         style="fill:#cccccc;fill-opacity:1;fill-rule:nonzero;stroke:none"
         id="path3378"
         inkscape:connector-curvature="0" /><path
         d="m 216.41,74.88 8.51,0 0,35.9 -8.51,0 0,-35.9 z"
         style="fill:#cccccc;fill-opacity:1;fill-rule:nonzero;stroke:none"
         id="path3380"
         inkscape:connector-curvature="0" /><path
         d="m 227.46,74.88 8.51,0 0,42.23 -8.51,0 0,-42.23 z"
         style="fill:#cccccc;fill-opacity:1;fill-rule:nonzero;stroke:none"
         id="path3382"
         inkscape:connector-curvature="0" /><path
         d="m 238.52,74.88 8.51,0 0,41.17 -8.51,0 0,-41.17 z"
         style="fill:#cccccc;fill-opacity:1;fill-rule:nonzero;stroke:none"
         id="path3384"
         inkscape:connector-curvature="0" /><path
         d="m 249.58,74.88 8.51,0 0,46.98 -8.51,0 0,-46.98 z"
         style="fill:#821122;fill-opacity:1;fill-rule:nonzero;stroke:none"
         id="path3386"
         inkscape:connector-curvature="0" /><path
         d="m 260.64,74.88 8.51,0 0,51.73 -8.51,0 0,-51.73 z"
         style="fill:#821122;fill-opacity:1;fill-rule:nonzero;stroke:none"
         id="path3388"
         inkscape:connector-curvature="0" /><path
         d="m 271.7,74.88 8.51,0 0,40.12 -8.51,0 0,-40.12 z"
         style="fill:#cccccc;fill-opacity:1;fill-rule:nonzero;stroke:none"
         id="path3390"
         inkscape:connector-curvature="0" /><path
         d="m 282.75,74.88 8.51,0 0,42.76 -8.51,0 0,-42.76 z"
         style="fill:#cccccc;fill-opacity:1;fill-rule:nonzero;stroke:none"
         id="path3392"
         inkscape:connector-curvature="0" /><path
         d="m 293.81,74.88 8.51,0 0,53.06 -8.51,0 0,-53.06 z"
         style="fill:#821122;fill-opacity:1;fill-rule:nonzero;stroke:none"
         id="path3394"
         inkscape:connector-curvature="0" /><path
         d="m 304.87,74.88 8.51,0 0,105.58 -8.51,0 0,-105.58 z"
         style="fill:#821122;fill-opacity:1;fill-rule:nonzero;stroke:none"
         id="path3396"
         inkscape:connector-curvature="0" /><path
         d="m 315.93,74.88 8.51,0 0,106.63 -8.51,0 0,-106.63 z"
         style="fill:#821122;fill-opacity:1;fill-rule:nonzero;stroke:none"
         id="path3398"
         inkscape:connector-curvature="0" /><path
         d="m 326.99,74.88 8.51,0 0,93.96 -8.51,0 0,-93.96 z"
         style="fill:#cccccc;fill-opacity:1;fill-rule:nonzero;stroke:none"
         id="path3400"
         inkscape:connector-curvature="0" /><path
         d="m 338.04,74.88 8.51,0 0,112.97 -8.51,0 0,-112.97 z"
         style="fill:#821122;fill-opacity:1;fill-rule:nonzero;stroke:none"
         id="path3402"
         inkscape:connector-curvature="0" /><path
         d="m 349.1,74.88 8.51,0 0,103.47 -8.51,0 0,-103.47 z"
         style="fill:#cccccc;fill-opacity:1;fill-rule:nonzero;stroke:none"
         id="path3404"
         inkscape:connector-curvature="0" /><path
         d="m 360.16,74.88 8.51,0 0,113.5 -8.51,0 0,-113.5 z"
         style="fill:#821122;fill-opacity:1;fill-rule:nonzero;stroke:none"
         id="path3406"
         inkscape:connector-curvature="0" /><path
         d="m 371.22,74.88 8.51,0 0,139.36 -8.51,0 0,-139.36 z"
         style="fill:#821122;fill-opacity:1;fill-rule:nonzero;stroke:none"
         id="path3408"
         inkscape:connector-curvature="0" /><path
         d="m 382.28,74.88 8.51,0 0,124.58 -8.51,0 0,-124.58 z"
         style="fill:#cccccc;fill-opacity:1;fill-rule:nonzero;stroke:none"
         id="path3410"
         inkscape:connector-curvature="0" /><path
         d="m 393.34,74.88 8.51,0 0,143.58 -8.51,0 0,-143.58 z"
         style="fill:#821122;fill-opacity:1;fill-rule:nonzero;stroke:none"
         id="path3412"
         inkscape:connector-curvature="0" /><path
         d="m 404.39,74.88 8.51,0 0,114.02 -8.51,0 0,-114.02 z"
         style="fill:#cccccc;fill-opacity:1;fill-rule:nonzero;stroke:none"
         id="path3414"
         inkscape:connector-curvature="0" /></g><g
       id="g3416"><text
         transform="matrix(1,0,0,-1,59.11,47.52)"
         style="font-variant:normal;font-weight:normal;font-size:16px;font-family:Georgia;-inkscape-font-specification:Georgia;writing-mode:lr-tb;fill:#000000;fill-opacity:1;fill-rule:nonzero;stroke:none;font-style:normal;font-stretch:normal;"
         id="text3418"><tspan
           x="0 8.8959999 17.792 26.688"
           y="0"
           sodipodi:role="line"
           id="tspan3420">1980</tspan></text>
<text
         transform="matrix(1,0,0,-1,114.4,47.52)"
         style="font-variant:normal;font-weight:normal;font-size:16px;font-family:Georgia;-inkscape-font-specification:Georgia;writing-mode:lr-tb;fill:#000000;fill-opacity:1;fill-rule:nonzero;stroke:none;font-style:normal;font-stretch:normal;"
         id="text3422"><tspan
           x="0 8.8959999 17.792 26.688"
           y="0"
           sodipodi:role="line"
           id="tspan3424">1985</tspan></text>
<text
         transform="matrix(1,0,0,-1,169.69,47.52)"
         style="font-variant:normal;font-weight:normal;font-size:16px;font-family:Georgia;-inkscape-font-specification:Georgia;writing-mode:lr-tb;fill:#000000;fill-opacity:1;fill-rule:nonzero;stroke:none;font-style:normal;font-stretch:normal;"
         id="text3426"><tspan
           x="0 8.8959999 17.792 26.688"
           y="0"
           sodipodi:role="line"
           id="tspan3428">1990</tspan></text>
<text
         transform="matrix(1,0,0,-1,224.98,47.52)"
         style="font-variant:normal;font-weight:normal;font-size:16px;font-family:Georgia;-inkscape-font-specification:Georgia;writing-mode:lr-tb;fill:#000000;fill-opacity:1;fill-rule:nonzero;stroke:none;font-style:normal;font-stretch:normal;"
         id="text3430"><tspan
           x="0 8.8959999 17.792 26.688"
           y="0"
           sodipodi:role="line"
           id="tspan3432">1995</tspan></text>
<text
         transform="matrix(1,0,0,-1,280.27,47.52)"
         style="font-variant:normal;font-weight:normal;font-size:16px;font-family:Georgia;-inkscape-font-specification:Georgia;writing-mode:lr-tb;fill:#000000;fill-opacity:1;fill-rule:nonzero;stroke:none;font-style:normal;font-stretch:normal;"
         id="text3434"><tspan
           x="0 8.8959999 17.792 26.688"
           y="0"
           sodipodi:role="line"
           id="tspan3436">2000</tspan></text>
<text
         transform="matrix(1,0,0,-1,335.56,47.52)"
         style="font-variant:normal;font-weight:normal;font-size:16px;font-family:Georgia;-inkscape-font-specification:Georgia;writing-mode:lr-tb;fill:#000000;fill-opacity:1;fill-rule:nonzero;stroke:none;font-style:normal;font-stretch:normal;"
         id="text3438"><tspan
           x="0 8.8959999 17.792 26.688"
           y="0"
           sodipodi:role="line"
           id="tspan3440">2005</tspan></text>
<text
         transform="matrix(1,0,0,-1,390.85,47.52)"
         style="font-variant:normal;font-weight:normal;font-size:16px;font-family:Georgia;-inkscape-font-specification:Georgia;writing-mode:lr-tb;fill:#000000;fill-opacity:1;fill-rule:nonzero;stroke:none;font-style:normal;font-stretch:normal;"
         id="text3442"><tspan
           x="0 8.8959999 17.792 26.688"
           y="0"
           sodipodi:role="line"
           id="tspan3444">2010</tspan></text>
</g><text
       id="text3448"
       style="font-style:normal;font-variant:normal;font-weight:bold;font-stretch:normal;font-size:11.99999974px;line-height:125.99999905%;font-family:Georgia;-inkscape-font-specification:'Georgia Bold';writing-mode:lr-tb;fill:#000000;fill-opacity:1;fill-rule:nonzero;stroke:none;"
       transform="scale(0.86039731,-1.1622538)"
       x="95.286331"
       y="-203.81355"
       sodipodi:linespacing="126%"><tspan
         id="tspan3450"
         sodipodi:role="line"
         y="-203.81355"
         x="95.286331 106.14388 114.50508 119.51279 128.7011 137.06232 146.25063 148.92741 157.28862 161.46922 172.32677 181.51508 186.5228 190.70338 201.56093 210.74925 219.93753 224.11815 234.14859 242.50981 247.51752 251.69814 260.88641 270.07474 274.25534 285.11288 294.30121 303.48947 308.49719 316.85843 325.2196 330.22736 334.40793 345.26547 353.62668 361.98788 371.17621 375.35681 380.36453 388.72574 392.90634 397.08694 405.44815 413.80936 422.17053 430.53177 439.31409 447.67526 456.0365 464.39771">Nathan's Hot Dog Eating Contest Results, 1980−2010</tspan></text>
<text
       id="text3452"
       style="font-variant:normal;font-weight:normal;font-size:16px;font-family:Georgia;-inkscape-font-specification:Georgia;writing-mode:lr-tb;fill:#000000;fill-opacity:1;fill-rule:nonzero;stroke:none;font-style:normal;font-stretch:normal;"
       transform="scale(1,-1)"
       x="219.64999"
       y="-18.719999"><tspan
         id="tspan3454"
         sodipodi:role="line"
         y="-18.719999"
         x="219.64999 230.32201 239.218 248.114 257.01001">Année</tspan></text>
<text
       id="text3456"
       style="font-style:normal;font-variant:normal;font-weight:normal;font-stretch:normal;font-size:11.94608784px;line-height:100%;font-family:Georgia;-inkscape-font-specification:'Georgia, Normal';text-align:start;writing-mode:lr-tb;text-anchor:start;fill:#000000;fill-opacity:1;fill-rule:nonzero;stroke:none"
       transform="matrix(1.0024208,8.1363189e-4,-0.05360293,-0.99762855,0,0)"
       x="37.947586"
       y="-207.89417"
       sodipodi:linespacing="100%"><tspan
         id="tspan3458"
         sodipodi:role="line"
         y="-207.89417"
         x="37.947586 45.423386 51.180378 54.058868 60.105755 67.581551 73.338531 79.09552 84.272636 87.151138 92.908119 95.786621 98.665108 103.84226 109.59924 115.35622 121.11321 128.589 130.88765 136.06479 141.82178 146.9989 149.87743 155.42731 160.3456 166.10255 168.40121 174.1582">Hot−Dogs et sandwichs avalés</tspan></text>
<path
       inkscape:connector-curvature="0"
       id="path3464"
       style="fill:none;stroke:#000000;stroke-width:0.96456701;stroke-linecap:round;stroke-linejoin:round;stroke-miterlimit:10;stroke-dasharray:none;stroke-opacity:1"
       d="m 43.404171,75.072429 -11.908981,0" /><path
       inkscape:connector-curvature="0"
       id="path3468"
       style="fill:none;stroke:#000000;stroke-width:1.0275259;stroke-linecap:round;stroke-linejoin:round;stroke-miterlimit:10;stroke-dasharray:none;stroke-opacity:1"
       d="m 44.11064,117.11 -13.514362,0" /><path
       inkscape:connector-curvature="0"
       id="path3472"
       style="fill:none;stroke:#000000;stroke-width:1.0474695;stroke-linecap:round;stroke-linejoin:round;stroke-miterlimit:10;stroke-dasharray:none;stroke-opacity:1"
       d="m 45.818566,159.34 -14.044063,0" /><path
       inkscape:connector-curvature="0"
       id="path3476"
       style="fill:none;stroke:#000000;stroke-width:1.0407691;stroke-linecap:round;stroke-linejoin:round;stroke-miterlimit:10;stroke-dasharray:none;stroke-opacity:1"
       d="m 43.708711,201.57 -13.864964,0" /><text
       id="text3478"
       style="font-style:normal;font-variant:normal;font-weight:normal;font-stretch:normal;font-size:16px;font-family:Georgia;-inkscape-font-specification:Georgia;writing-mode:lr-tb;fill:#000000;fill-opacity:1;fill-rule:nonzero;stroke:none"
       transform="scale(1,-1)"
       x="32.658436"
       y="-77.209663"><tspan
         style="font-style:normal;font-variant:normal;font-weight:normal;font-stretch:normal;font-family:Georgia;-inkscape-font-specification:Georgia"
         id="tspan3480"
         y="-77.209663"
         x="32.658436">0</tspan></text>
<text
       id="text3482"
       style="font-style:normal;font-variant:normal;font-weight:normal;font-stretch:normal;font-size:16px;font-family:Georgia;-inkscape-font-specification:Georgia;writing-mode:lr-tb;fill:#000000;fill-opacity:1;fill-rule:nonzero;stroke:none"
       transform="scale(1,-1)"
       x="28.18309"
       y="-120.33086"><tspan
         id="tspan3484"
         sodipodi:role="line"
         y="-120.33086"
         x="28.18309 37.079094">20</tspan></text>
<text
       id="text3486"
       style="font-style:normal;font-variant:normal;font-weight:normal;font-stretch:normal;font-size:16px;font-family:Georgia;-inkscape-font-specification:Georgia;writing-mode:lr-tb;fill:#000000;fill-opacity:1;fill-rule:nonzero;stroke:none"
       transform="scale(1,-1)"
       x="29.722157"
       y="-165.93228"><tspan
         id="tspan3488"
         sodipodi:role="line"
         y="-165.93228"
         x="29.722157 38.618153">40</tspan></text>
<text
       id="text3490"
       style="font-style:normal;font-variant:normal;font-weight:normal;font-stretch:normal;font-size:16px;font-family:Georgia;-inkscape-font-specification:Georgia;writing-mode:lr-tb;fill:#000000;fill-opacity:1;fill-rule:nonzero;stroke:none"
       transform="scale(1,-1)"
       x="27.809206"
       y="-204.89516"><tspan
         id="tspan3492"
         sodipodi:role="line"
         y="-204.89516"
         x="27.809206 36.705204">60</tspan></text>
<flowRoot
       xml:space="preserve"
       id="flowRoot3500"
       style="fill:black;stroke:none;stroke-opacity:1;stroke-width:1px;stroke-linejoin:miter;stroke-linecap:butt;fill-opacity:1;font-family:Georgia;font-style:normal;font-weight:normal;font-size:40px;line-height:125%;letter-spacing:0px;word-spacing:0px;-inkscape-font-specification:'Georgia, Normal';font-stretch:normal;font-variant:normal;text-anchor:start;text-align:start;writing-mode:lr"><flowRegion
         id="flowRegion3502"><rect
           id="rect3504"
           width="600.71527"
           height="317.76508"
           x="-38.612888"
           y="15.824954" /></flowRegion><flowPara
         id="flowPara3506"></flowPara></flowRoot></g></svg>